<svg xmlns="http://www.w3.org/2000/svg" viewBox="0 0 213.15 105.06"><defs><style>.cls-1{fill:#fff;}</style></defs><title>geral</title><g id="Capa_2" data-name="Capa 2"><g id="Capa_1-2" data-name="Capa 1"><path class="cls-1" d="M24.84,68.61a20.07,20.07,0,0,1-10.31-8.89A26,26,0,0,1,11.28,46.3a33.74,33.74,0,0,1,3.53-14.47,34.24,34.24,0,0,1,9-11.44,29,29,0,0,1,12.78-6.07,24.48,24.48,0,0,1,14.82,1.77,3.06,3.06,0,0,1,1.13.56,6.37,6.37,0,0,1,3.11,1.48,6.55,6.55,0,0,1,2,3.6q1.26,5.94,2.33,12a97.93,97.93,0,0,1,1.34,12.07,68.88,68.88,0,0,1-.5,12A46.23,46.23,0,0,1,57.6,69.6,37.92,37.92,0,0,1,52,78.92a36,36,0,0,1-7.91,7.2,32.88,32.88,0,0,1-9.6,4.38,27.61,27.61,0,0,1-10.8.7,6.86,6.86,0,0,1-5.08-2.89,9,9,0,0,1-1.7-5.16,7.21,7.21,0,0,1,1.7-4.73q1.7-2,5.08-1.62,6.78.84,11.15-1.2a15.9,15.9,0,0,0,6.92-6.14,31.27,31.27,0,0,1-8.33,1.13A20.8,20.8,0,0,1,24.84,68.61Zm1.41-26.69a21.17,21.17,0,0,0-.56,3.6,15.45,15.45,0,0,0,.14,3.68A9,9,0,0,0,27,52.51a7.1,7.1,0,0,0,2.61,2.55,9.36,9.36,0,0,0,7.77.84,22.67,22.67,0,0,0,7.2-3.67,11.85,11.85,0,0,1,1.69-1,69.29,69.29,0,0,0-.42-11.72c-.48-3.85-1-7.38-1.56-10.59a16,16,0,0,0-6.14.07,13.9,13.9,0,0,0-5.29,2.41,16.18,16.18,0,0,0-4.1,4.44A20.79,20.79,0,0,0,26.25,41.92Z"/><path class="cls-1" d="M99.73,86.73a40.28,40.28,0,0,1-14.6-.24A26.41,26.41,0,0,1,72.23,80a22.36,22.36,0,0,1-5-6.66A23,23,0,0,1,65,65.65a33,33,0,0,1,.18-8.17,38.45,38.45,0,0,1,2.06-8.06,27.52,27.52,0,0,1,3.82-6.84,19.69,19.69,0,0,1,5.45-5,17.94,17.94,0,0,1,6.78-2.42,18.82,18.82,0,0,1,7.94.66,18.06,18.06,0,0,1,6.9,3.52,23.66,23.66,0,0,1,4.91,5.57,25.33,25.33,0,0,1,3,7,39,39,0,0,1,1.27,7.57,5.82,5.82,0,0,1-1.27,3.76,4.77,4.77,0,0,1-3.21,2.18q-6.06.86-11.94,1.7L79.13,68.8a13.63,13.63,0,0,0,7.27,5.33,20.46,20.46,0,0,0,9.93.73A5.88,5.88,0,0,1,101.24,76a7.9,7.9,0,0,1,2.67,3.88,5.86,5.86,0,0,1-.31,4.3A4.78,4.78,0,0,1,99.73,86.73ZM86.4,47.36A6.51,6.51,0,0,0,83,48a6.31,6.31,0,0,0-2.42,2.12A14.66,14.66,0,0,0,79,53.18a21.9,21.9,0,0,0-1,3.39c2.67-.41,5.33-.79,8-1.15s5.37-.75,8.11-1.15a14.91,14.91,0,0,0-2.78-4.61A6.93,6.93,0,0,0,86.4,47.36Z"/><path class="cls-1" d="M107.22,20.75a5.31,5.31,0,0,1,1.21-4,5.78,5.78,0,0,1,3.21-1.81,7.53,7.53,0,0,1,3.88.3,5.63,5.63,0,0,1,3.08,2.36,26.08,26.08,0,0,1,11.7-2.36A25,25,0,0,1,142,18.57a5.1,5.1,0,0,1,3,3.82,6.84,6.84,0,0,1-.84,4.36,7,7,0,0,1-3.46,3,5.26,5.26,0,0,1-4.84-.49,13.08,13.08,0,0,0-8.24-1.63,12.83,12.83,0,0,0-7.51,3.57q.48,8.61,1,17.08t1.09,17.08a4.85,4.85,0,0,1-1.58,4.42,6.25,6.25,0,0,1-4.12,1.52,7.27,7.27,0,0,1-4.36-1.52,5.76,5.76,0,0,1-2.3-4.42Q108.07,42.8,107.22,20.75Z"/><path class="cls-1" d="M140.46,89.58A16.76,16.76,0,0,1,135.31,88a19.19,19.19,0,0,1-4.48-3,15.28,15.28,0,0,1-3.27-4.24,12.37,12.37,0,0,1-1.4-5.33,16.8,16.8,0,0,1,2.19-9.81A25.85,25.85,0,0,1,135.07,58a37.35,37.35,0,0,1,9.33-5.21,41.84,41.84,0,0,1,10.23-2.61A14.24,14.24,0,0,0,152,47a11.18,11.18,0,0,0-3.27-2.12,8.29,8.29,0,0,0-3.7-.6,7.78,7.78,0,0,0-4,1.57,4.88,4.88,0,0,1-4.61.91A6.11,6.11,0,0,1,133.13,44a7.44,7.44,0,0,1-.91-4.54,5.72,5.72,0,0,1,2.67-4.24,17.19,17.19,0,0,1,7.69-3.09,20.55,20.55,0,0,1,8,.49A24.16,24.16,0,0,1,158,36,22.85,22.85,0,0,1,164,41.73a38,38,0,0,1,4.73,8.78,54.94,54.94,0,0,1,2.72,9.88,72.08,72.08,0,0,1,1.09,10.3q.18,5.2-.06,10a5.67,5.67,0,0,1-1.63,4,6.76,6.76,0,0,1-3.52,1.82,6.91,6.91,0,0,1-3.93-.43,4.94,4.94,0,0,1-2.79-2.72,81.44,81.44,0,0,1-9.45,4.9A19.17,19.17,0,0,1,140.46,89.58Zm-.73-18c-.89,1.46-1.17,2.61-.84,3.46a3.08,3.08,0,0,0,1.81,1.81,7.7,7.7,0,0,0,3.21.49,10.44,10.44,0,0,0,3.46-.67,27.05,27.05,0,0,0,6.42-3.33q3-2.12,6.17-4.06-.12-1.7-.36-3.45c-.16-1.17-.36-2.32-.61-3.45a26.87,26.87,0,0,0-10.9,2.06A17.18,17.18,0,0,0,139.73,71.53Z"/><path class="cls-1" d="M190.71,102.52a14.42,14.42,0,0,1-7.45-6.67,31.86,31.86,0,0,1-3.21-10.12,67.86,67.86,0,0,1-.73-11.62q.12-6,0-11.18-.12-14.2.12-28.19t.85-28.19a6.55,6.55,0,0,1,2.12-5.09A5.76,5.76,0,0,1,186.71,0a6.64,6.64,0,0,1,4.18,2.16,7,7,0,0,1,1.76,5.38q-.5,10.61-.67,21t-.3,20.87v10.9q0,5.46.12,10.9c0,1.06,0,2.47-.12,4.24s-.08,3.56,0,5.38a20,20,0,0,0,.79,4.94,4.3,4.3,0,0,0,2.24,2.94,6.25,6.25,0,0,1,3.57,4,9.06,9.06,0,0,1,0,5.31,8.17,8.17,0,0,1-2.78,4.16A4.31,4.31,0,0,1,190.71,102.52Z"/><circle class="cls-1" cx="205.96" cy="77.32" r="7.19"/><path class="cls-1" d="M4.61,73.47C.18,77.49-.91,84,.71,89.6c1.81,6.23,6.91,10.64,12.75,13.05,11.65,4.8,25.59,2.07,35.73-5A40,40,0,0,0,62.64,82.07h-3a39.14,39.14,0,0,0,6.81,8.35,31.9,31.9,0,0,0,8,5.08A34.28,34.28,0,0,0,93.33,98a30.09,30.09,0,0,0,10.11-3.45c1.94-1.08.2-4.06-1.75-3-10,5.51-23.15,4.11-32-3a34,34,0,0,1-7.06-8.32c-.65-1-2.4-1.24-3,0A37.74,37.74,0,0,1,35,100.43a33.68,33.68,0,0,1-16.24.31c-5.49-1.31-11-4.29-13.72-9.45-2.57-4.89-2.27-11.52,2-15.38,1.65-1.5-.8-3.94-2.44-2.44Z"/><path class="cls-1" d="M69.81,32C69.13,28.4,72,25.39,75,24c3.84-1.8,8.21-.82,11.9.9a52,52,0,0,1,6.1,3.5c1.73,1.11,3.72,2.85,5.93,2.23,2.44-.68,2.51-3.48,2.68-5.54.18-2.4.19-4.83.57-7.21.66-4.15,3.17-9.47,8.16-9.13,2.22.15,2.21-3.3,0-3.45-4.52-.31-8.37,3.08-10.14,7a22.62,22.62,0,0,0-1.69,7.35c-.12,1.28-.18,2.56-.25,3.84,0,.68-.09,1.36-.14,2,0,.38,0,1.37-.22,1.69s.42.09-.21,0a2.41,2.41,0,0,1-.66-.34c-.48-.27-.93-.6-1.39-.9-1.07-.71-2.15-1.4-3.25-2.06a36.25,36.25,0,0,0-6.88-3.3c-4.33-1.47-9-1.5-13,.78s-7,6.66-6,11.48c.42,2.18,3.75,1.26,3.33-.91Z"/></g></g></svg>