<?xml version="1.0" encoding="utf-8"?>
<!-- Generator: Adobe Illustrator 24.0.2, SVG Export Plug-In . SVG Version: 6.00 Build 0)  -->
<svg version="1.1" id="Capa_1" xmlns="http://www.w3.org/2000/svg" xmlns:xlink="http://www.w3.org/1999/xlink" x="0px" y="0px"
	 viewBox="0 0 64.4 78" style="enable-background:new 0 0 64.4 78;" xml:space="preserve">
<style type="text/css">
	.st0{fill:#FFFFFF;}
</style>
<title>simbolo_geral</title>
<g id="Capa_2_1_">
	<g id="Capa_1-2">
		<path class="st0" d="M21,47.1c-3.8-1.4-6.9-4.1-8.9-7.6c-2-3.5-2.9-7.5-2.8-11.5c0.1-4.3,1.1-8.6,3-12.4c1.8-3.8,4.5-7.1,7.7-9.8
			c3.2-2.6,7-4.4,11-5.2c4.3-0.8,8.8-0.3,12.8,1.5c0.4,0.1,0.7,0.3,1,0.5c1,0.2,1.9,0.6,2.7,1.3c0.9,0.8,1.5,1.9,1.7,3.1
			c0.7,3.4,1.4,6.8,2,10.3c0.6,3.4,1,6.9,1.2,10.4c0.2,3.4,0,6.9-0.4,10.3c-0.5,3.5-1.4,6.9-2.7,10.1c-1.2,2.9-2.8,5.6-4.8,8
			c-1.9,2.4-4.2,4.5-6.8,6.2c-2.5,1.7-5.3,3-8.3,3.8c-3,0.8-6.2,1-9.3,0.6c-1.7-0.2-3.3-1.1-4.4-2.5c-0.9-1.3-1.4-2.8-1.4-4.4
			c0-1.5,0.5-2.9,1.4-4.1c1.1-1.2,2.8-1.7,4.4-1.4c3.9,0.5,7.1,0.2,9.6-1c2.5-1.1,4.6-3,6-5.3c-2.3,0.7-4.7,1-7.2,1
			C25.9,48.8,23.3,48.2,21,47.1z M22.2,24.1c-0.3,1-0.4,2.1-0.5,3.1c-0.1,1.1,0,2.1,0.1,3.1c0.1,1,0.5,2,1,2.9
			c0.5,0.9,1.3,1.7,2.2,2.2c2,1.2,4.5,1.5,6.7,0.7c2.3-0.7,4.4-1.7,6.2-3.1c0.5-0.3,1-0.6,1.5-0.8c0.2-3.4,0-6.7-0.4-10.1
			c-0.4-3.3-0.8-6.4-1.3-9.1c-1.7-0.3-3.5-0.3-5.3,0.1c-1.6,0.4-3.2,1.1-4.6,2.1c-1.4,1-2.6,2.3-3.5,3.8
			C23.4,20.5,22.7,22.3,22.2,24.1z"/>
		<circle class="st0" cx="58.3" cy="49.9" r="6.2"/>
		<path class="st0" d="M3.9,51.5c-3.7,3.3-4.6,8.7-3.3,13.4c1.4,5.2,5.6,9,10.5,11c9.9,4.2,21.8,2,30.5-4c5-3.4,9-8,11.6-13.4h-1.9
			c0.8,1.2,1.6,2.4,2.5,3.6s2.8,0,1.9-1.1s-1.7-2.3-2.5-3.6c-0.3-0.5-1-0.7-1.5-0.4c-0.2,0.1-0.3,0.2-0.4,0.4
			C47,66,39.2,72.4,29.8,74.8c-8.8,2.3-21.3,0.9-26.1-8c-2.3-4.3-2.1-10.2,1.7-13.7C6.5,52.1,4.9,50.5,3.9,51.5z"/>
	</g>
</g>
</svg>
